<svg height="61" viewBox="0 0 30 61" width="30" xmlns="http://www.w3.org/2000/svg"><g fill="none" fill-rule="evenodd"><path d="m15 15c-3.8659932 0-7.36599325 1.5670034-9.89949494 4.1005051-2.53350168 2.5335017-4.10050506 6.0335017-4.10050506 9.8994949 0 1.8822596.37176203 3.677678 1.04434854 5.3166963 1.05875469 2.8802452 2.81808512 5.800571 4.64341327 8.8160686 2.8132019 4.6474952 5.81106619 9.5303336 6.31288569 14.9201729.0140915.5317931.2350064 1.0111432.5851389 1.3612758.3619289.3619288.8619289.5857864 1.4142136.5857864s1.0522847-.2238576 1.4142136-.5857864c.3498895-.3498896.5707408-.8288175.5850465-1.3592765.5011433-5.3902756 3.4990242-10.2734437 6.312204-14.9211958 1.8225224-3.0110525 3.5792307-5.9271964 4.6382185-8.8036979.6766719-1.6432482 1.0503174-3.4430048 1.0503174-5.3300434 0-3.8659932-1.5670034-7.3659932-4.1005051-9.8994949s-6.0335017-4.1005051-9.8994949-4.1005051z" fill="#842b37" stroke="#000" stroke-width="2"/><circle cx="15" cy="29" fill="#411017" r="5"/></g></svg>